<svg width="20" height="20" viewBox="0 0 20 20" fill="none" xmlns="http://www.w3.org/2000/svg">
<g clip-path="url(#clip0_338_2048)">
<path d="M0 9.7712C0 10.3985 0.509091 10.9076 1.13636 10.9076H16.1205L11.2432 15.7848C10.8 16.228 10.8 16.9485 11.2432 17.3917C11.6864 17.8348 12.4068 17.8348 12.85 17.3917L19.6682 10.5735C19.7727 10.4689 19.8568 10.3439 19.9136 10.2053C19.9682 10.0667 20 9.9212 20 9.77575V9.7712C20 9.62347 19.9705 9.47575 19.9114 9.33711C19.8545 9.19847 19.7705 9.07347 19.6659 8.96893L12.8477 2.15075C12.4045 1.70756 11.6841 1.70756 11.2409 2.15075C10.7977 2.59393 10.7977 3.31438 11.2409 3.75756L16.1205 8.63484H1.13636C0.509091 8.63484 0 9.14393 0 9.7712Z" fill="white"/>
</g>
<defs>
<clipPath id="clip0_338_2048">
<rect width="20" height="20" fill="white"/>
</clipPath>
</defs>
</svg>
