<svg width="250" height="36" viewBox="0 0 250 36" fill="none" xmlns="http://www.w3.org/2000/svg">
<g clip-path="url(#clip0_338_2018)">
<path d="M140.965 18.1783C141.417 19.3194 141.669 20.5615 141.669 21.8599C141.669 27.3969 136.863 31.8879 131.736 31.8879C126.61 31.8879 121.803 27.9995 121.803 21.8599C121.803 15.7204 126.249 11.8358 131.736 11.8358C133.067 11.8358 134.34 12.1056 135.504 12.5869C135.504 12.5869 136.028 9.63668 134.828 8.96465C133.627 8.29262 132.702 8.42008 131.736 8.42008C124.38 8.42008 118.417 14.4384 118.417 21.8599C118.417 29.2814 124.38 35.3017 131.736 35.3017C139.092 35.3017 145.052 29.2814 145.052 21.8599C145.052 21.0852 144.775 19.8914 144.401 18.908C144.027 17.9246 140.965 18.1783 140.965 18.1783Z" fill="#D1AD4F"/>
<path d="M140.965 18.1783C141.417 19.3194 141.669 20.5615 141.669 21.8599C141.669 27.3969 136.863 31.8879 131.736 31.8879C126.61 31.8879 121.803 27.9995 121.803 21.8599C121.803 15.7204 126.249 11.8358 131.736 11.8358C133.067 11.8358 134.34 12.1056 135.504 12.5869C135.504 12.5869 136.028 9.63668 134.828 8.96465C133.627 8.29262 132.702 8.42008 131.736 8.42008C124.38 8.42008 118.417 14.4384 118.417 21.8599C118.417 29.2814 124.38 35.3017 131.736 35.3017C139.092 35.3017 145.052 29.2814 145.052 21.8599C145.052 21.0852 144.775 19.8914 144.401 18.908C144.027 17.9246 140.965 18.1783 140.965 18.1783Z" fill="url(#paint0_linear_338_2018)"/>
<path d="M129.16 16.2839C129.16 16.2839 144.245 17.857 141.082 0.777832C141.082 0.777832 148.071 18.0645 129.16 16.2839Z" fill="#D1AD4F"/>
<path d="M129.16 16.2839C129.16 16.2839 144.245 17.857 141.082 0.777832C141.082 0.777832 148.071 18.0645 129.16 16.2839Z" fill="url(#paint1_linear_338_2018)"/>
<path d="M149.194 12.1681C149.194 12.1681 146.324 13.2655 141.845 12.973C141.845 12.973 143.24 9.29778 145.387 8.28421C147.906 7.09419 150.03 9.50222 152.972 8.85962C152.972 8.85962 153.702 15.7204 147.058 16.6197C147.058 16.6197 143.532 17.3133 141.91 13.6082C141.908 13.6073 145.348 14.1486 149.194 12.1681Z" fill="#D1AD4F"/>
<path d="M149.194 12.1681C149.194 12.1681 146.324 13.2655 141.845 12.973C141.845 12.973 143.24 9.29778 145.387 8.28421C147.906 7.09419 150.03 9.50222 152.972 8.85962C152.972 8.85962 153.702 15.7204 147.058 16.6197C147.058 16.6197 143.532 17.3133 141.91 13.6082C141.908 13.6073 145.348 14.1486 149.194 12.1681Z" fill="url(#paint2_linear_338_2018)"/>
<path d="M167.867 31.2203H156.395L154.58 35.4692H150.215L161.455 9.55078H162.846L174.086 35.4692H169.683L167.867 31.2203ZM162.15 17.1602L157.863 27.7053H166.399L162.15 17.1602Z" fill="white"/>
<path d="M178.146 9.97567H182.241V31.7997H193.906V35.4692H178.146V9.97567Z" fill="white"/>
<path d="M222.244 9.55078V35.4692H218.15V19.4778L210.849 29.0572H209.459L202.12 19.4392V35.4692H198.025V9.55078H199.454L210.154 23.804L220.854 9.55078H222.244Z" fill="white"/>
<path d="M243.951 31.2203H232.479L230.663 35.4692H226.299L237.539 9.55078H238.93L250.17 35.4692H245.767L243.951 31.2203ZM238.234 17.1602L233.947 27.7053H242.483L238.234 17.1602Z" fill="white"/>
<path d="M17.6524 31.2203H6.18026L4.36481 35.4692H0L11.2403 9.55078H12.6309L23.8712 35.4692H19.4678L17.6524 31.2203ZM11.9356 17.1602L7.64807 27.7053H16.1846L11.9356 17.1602Z" fill="white"/>
<path d="M27.9313 9.97567H32.0257V31.7997H43.6909V35.4692H27.9313V9.97567Z" fill="white"/>
<path d="M48.9692 13.6452H40.3941V9.97567H61.6773V13.6452H53.0636V35.4692H48.9692V13.6452Z" fill="white"/>
<path d="M76.3171 25.1946V35.4692H72.2227V25.1946L63.4158 9.97567H67.9738L74.2699 21.0615L80.6047 9.97567H85.124L76.3171 25.1946Z" fill="white"/>
<path d="M110.468 9.97567V35.4692H109.077L93.5491 18.2031V35.4692H89.4547V9.55078H90.8839L106.373 27.1645V9.97567H110.468Z" fill="white"/>
</g>
<defs>
<linearGradient id="paint0_linear_338_2018" x1="135.706" y1="0.777832" x2="140.881" y2="34.9404" gradientUnits="userSpaceOnUse">
<stop stop-color="#D1AD4F"/>
<stop offset="0.534492" stop-color="#E2C374" stop-opacity="0.84"/>
<stop offset="1" stop-color="#94772D" stop-opacity="0"/>
</linearGradient>
<linearGradient id="paint1_linear_338_2018" x1="135.706" y1="0.777832" x2="140.881" y2="34.9404" gradientUnits="userSpaceOnUse">
<stop stop-color="#D1AD4F"/>
<stop offset="0.534492" stop-color="#E2C374" stop-opacity="0.84"/>
<stop offset="1" stop-color="#94772D" stop-opacity="0"/>
</linearGradient>
<linearGradient id="paint2_linear_338_2018" x1="135.706" y1="0.777832" x2="140.881" y2="34.9404" gradientUnits="userSpaceOnUse">
<stop stop-color="#D1AD4F"/>
<stop offset="0.534492" stop-color="#E2C374" stop-opacity="0.84"/>
<stop offset="1" stop-color="#94772D" stop-opacity="0"/>
</linearGradient>
<clipPath id="clip0_338_2018">
<rect width="250" height="34.8712" fill="white" transform="translate(0 0.777832)"/>
</clipPath>
</defs>
</svg>
