<svg width="26" height="25" viewBox="0 0 26 25" fill="none" xmlns="http://www.w3.org/2000/svg">
<g clip-path="url(#clip0_338_1955)">
<path d="M22.6686 18.7229C23.8176 16.8509 24.4244 14.6967 24.4213 12.5002L24.4213 12.5L24.4213 12.4998C24.4243 10.3032 23.8176 8.14899 22.6685 6.27698L22.662 6.26676C21.5959 4.52928 20.1022 3.09419 18.3234 2.09864C16.5446 1.10309 14.5402 0.580331 12.5017 0.580322C10.4633 0.580314 8.45887 1.10305 6.68006 2.09859C4.90125 3.09413 3.40745 4.5292 2.34141 6.26668L2.33479 6.27703C1.18859 8.15033 0.58204 10.3038 0.582031 12.4999C0.582023 14.6961 1.18856 16.8495 2.33474 18.7228L2.34148 18.7333C3.40752 20.4708 4.90131 21.9058 6.68011 22.9014C8.45891 23.8969 10.4633 24.4196 12.5017 24.4196C14.5401 24.4196 16.5445 23.8968 18.3233 22.9013C20.1021 21.9058 21.5959 20.4707 22.6619 18.7332L22.6686 18.7229ZM14.0253 22.3767C13.7981 22.5959 13.5367 22.7765 13.2513 22.9113C13.0171 23.0226 12.761 23.0803 12.5017 23.0803C12.2423 23.0803 11.9862 23.0226 11.752 22.9113C11.2089 22.6339 10.744 22.2248 10.3998 21.7214C9.69689 20.7056 9.17594 19.5753 8.8603 18.381C10.0729 18.3064 11.2867 18.2684 12.5017 18.267C13.7162 18.267 14.93 18.305 16.1432 18.381C15.9685 18.9951 15.7503 19.5959 15.4902 20.1789C15.1477 20.9989 14.6503 21.7451 14.0253 22.3768V22.3767ZM1.94462 13.1696H6.75239C6.78369 14.5112 6.92911 15.8476 7.18705 17.1645C5.8728 17.2801 4.5619 17.439 3.25435 17.641C2.48868 16.2673 2.0411 14.7393 1.94462 13.1696ZM3.25435 7.35892C4.56137 7.56146 5.87274 7.72034 7.18843 7.83555C6.92997 9.15235 6.78424 10.4888 6.75282 11.8303H1.94462C2.0411 10.2606 2.48867 8.73261 3.25434 7.35892H3.25435ZM10.9781 2.62318C11.2052 2.40401 11.4666 2.22345 11.752 2.08864C11.9862 1.97734 12.2423 1.91959 12.5017 1.91959C12.761 1.91959 13.0171 1.97734 13.2513 2.08864C13.7944 2.36604 14.2593 2.77514 14.6035 3.27854C15.3064 4.29432 15.8274 5.42461 16.143 6.6189C14.9305 6.69351 13.7167 6.73152 12.5017 6.73293C11.2872 6.73292 10.0733 6.6949 8.86008 6.61888C9.0348 6.00484 9.25303 5.40402 9.51313 4.82098C9.85561 4.00102 10.353 3.25479 10.9781 2.62318ZM23.0587 11.8303H18.251C18.2196 10.4888 18.0742 9.15233 17.8163 7.83544C19.1306 7.71979 20.4415 7.56095 21.749 7.35892C22.5147 8.7326 22.9622 10.2606 23.0587 11.8303ZM8.53406 17.0604C8.27214 15.779 8.12422 14.477 8.09202 13.1696H16.9115C16.8796 14.477 16.7319 15.779 16.4702 17.0604C15.1488 16.9737 13.826 16.9295 12.5017 16.9277C11.1783 16.9277 9.85579 16.9719 8.53406 17.0604ZM16.4693 7.93955C16.7312 9.22089 16.8791 10.5229 16.9113 11.8303H8.09187C8.12378 10.5229 8.27143 9.22087 8.5331 7.9395C9.8545 8.02619 11.1774 8.07043 12.5017 8.0722C13.825 8.0722 15.1476 8.02799 16.4693 7.93956V7.93955ZM18.2505 13.1696H23.0587C22.9622 14.7393 22.5147 16.2673 21.749 17.641C20.442 17.4384 19.1306 17.2796 17.8149 17.1644C18.0734 15.8476 18.2191 14.5112 18.2505 13.1696ZM20.946 6.12625C19.8032 6.29112 18.657 6.42166 17.5074 6.51785C17.3008 5.74859 17.0343 4.99667 16.7104 4.26897C16.4147 3.59932 16.0426 2.96608 15.6015 2.38184C17.7331 3.03556 19.6036 4.34607 20.946 6.12625ZM5.0202 5.01849C6.24294 3.79458 7.74725 2.8893 9.40124 2.382C9.37615 2.4145 9.35033 2.44556 9.3256 2.47873C8.47545 3.70257 7.85619 5.07151 7.49837 6.51806C6.3487 6.42069 5.2017 6.29008 4.05736 6.12625C4.35249 5.73533 4.6742 5.3652 5.0202 5.01849ZM4.05736 18.8737C5.20011 18.7088 6.3463 18.5782 7.49591 18.4821C7.70253 19.2513 7.96901 20.0033 8.29291 20.731C8.58864 21.4006 8.96073 22.0338 9.4018 22.6181C7.27023 21.9644 5.39971 20.6539 4.05736 18.8737V18.8737ZM19.9831 19.9814C18.7604 21.2053 17.2561 22.1106 15.6021 22.6179C15.6272 22.5854 15.653 22.5544 15.6777 22.5212C16.5279 21.2974 17.1472 19.9284 17.505 18.4819C18.6547 18.5792 19.8017 18.7098 20.946 18.8737C20.6509 19.2646 20.3291 19.6347 19.9831 19.9814V19.9814Z" fill="white"/>
</g>
<defs>
<clipPath id="clip0_338_1955">
<rect width="25" height="25" fill="white" transform="translate(0.00195312)"/>
</clipPath>
</defs>
</svg>
