<svg width="251" height="35" viewBox="0 0 251 35" fill="none" xmlns="http://www.w3.org/2000/svg">
<g clip-path="url(#clip0_338_1937)">
<path d="M140.968 17.4004C141.42 18.5416 141.672 19.7837 141.672 21.0821C141.672 26.6191 136.865 31.1101 131.739 31.1101C126.612 31.1101 121.806 27.2216 121.806 21.0821C121.806 14.9425 126.252 11.058 131.739 11.058C133.069 11.058 134.342 11.3278 135.506 11.8091C135.506 11.8091 136.031 8.85884 134.83 8.18682C133.629 7.51479 132.704 7.64224 131.739 7.64224C124.383 7.64224 118.419 13.6606 118.419 21.0821C118.419 28.5036 124.383 34.5239 131.739 34.5239C139.095 34.5239 145.054 28.5036 145.054 21.0821C145.054 20.3074 144.777 19.1135 144.404 18.1302C144.03 17.1468 140.968 17.4004 140.968 17.4004Z" fill="white"/>
<path d="M129.162 15.5061C129.162 15.5061 144.247 17.0792 141.084 0C141.084 0 148.073 17.2867 129.162 15.5061Z" fill="white"/>
<path d="M149.196 11.3903C149.196 11.3903 146.327 12.4877 141.848 12.1951C141.848 12.1951 143.243 8.51995 145.389 7.50638C147.909 6.31636 150.033 8.72439 152.975 8.08179C152.975 8.08179 153.704 14.9425 147.06 15.8418C147.06 15.8418 143.535 16.5355 141.912 12.8303C141.911 12.8295 145.35 13.3708 149.196 11.3903Z" fill="white"/>
<path d="M167.869 30.4427H156.397L154.582 34.6916H150.217L161.457 8.77319H162.848L174.088 34.6916H169.685L167.869 30.4427ZM162.152 16.3826L157.865 26.9277H166.401L162.152 16.3826Z" fill="white"/>
<path d="M178.148 9.19809H182.242V31.0221H193.908V34.6916H178.148V9.19809Z" fill="white"/>
<path d="M222.246 8.77319V34.6916H218.152V18.7002L210.851 28.2796H209.461L202.122 18.6616V34.6916H198.027V8.77319H199.456L210.156 23.0264L220.856 8.77319H222.246Z" fill="white"/>
<path d="M243.953 30.4427H232.481L230.665 34.6916H226.301L237.541 8.77319H238.932L250.172 34.6916H245.768L243.953 30.4427ZM238.236 16.3826L233.949 26.9277H242.485L238.236 16.3826Z" fill="white"/>
<path d="M17.6548 30.4427H6.1827L4.36725 34.6916H0.00244141L11.2428 8.77319H12.6333L23.8737 34.6916H19.4703L17.6548 30.4427ZM11.9381 16.3826L7.65051 26.9277H16.187L11.9381 16.3826Z" fill="white"/>
<path d="M27.9337 9.19809H32.0281V31.0221H43.6934V34.6916H27.9337V9.19809Z" fill="white"/>
<path d="M48.9716 12.8676H40.3965V9.19809H61.6798V12.8676H53.0661V34.6916H48.9716V12.8676Z" fill="white"/>
<path d="M76.3196 24.417V34.6916H72.2252V24.417L63.4183 9.19809H67.9762L74.2724 20.2839L80.6071 9.19809H85.1264L76.3196 24.417Z" fill="white"/>
<path d="M110.47 9.19809V34.6916H109.079L93.5516 17.4256V34.6916H89.4571V8.77319H90.8863L106.376 26.3869V9.19809H110.47Z" fill="white"/>
</g>
<defs>
<clipPath id="clip0_338_1937">
<rect width="250" height="34.8712" fill="white" transform="translate(0.00244141)"/>
</clipPath>
</defs>
</svg>
