<svg width="25" height="26" viewBox="0 0 25 26" fill="none" xmlns="http://www.w3.org/2000/svg">
<g clip-path="url(#clip0_338_2036)">
<path d="M12.746 25.7783C12.6633 25.7783 12.5805 25.7783 12.4971 25.7779C10.5375 25.7826 8.72688 25.7329 6.96602 25.6257C5.35164 25.5274 3.87802 24.9695 2.70424 24.0124C1.57166 23.0889 0.798225 21.8402 0.405502 20.3013C0.0637055 18.9616 0.0455856 17.6465 0.0282288 16.3745C0.0156402 15.4618 0.00267029 14.3803 0 13.2805C0.00267029 12.1762 0.0156402 11.0947 0.0282288 10.1821C0.0455856 8.91023 0.0637055 7.59512 0.405502 6.2552C0.798225 4.71635 1.57166 3.46761 2.70424 2.54407C3.87802 1.58697 5.35164 1.02907 6.96621 0.930838C8.72707 0.823836 10.5381 0.773863 12.5019 0.778632C14.4621 0.774435 16.2722 0.823836 18.033 0.930838C19.6474 1.02907 21.121 1.58697 22.2948 2.54407C23.4276 3.46761 24.2008 4.71635 24.5935 6.2552C24.9353 7.59492 24.9535 8.91023 24.9708 10.1821C24.9834 11.0947 24.9966 12.1762 24.999 13.276C24.9966 14.3803 24.9834 15.4618 24.9708 16.3745C24.9636 16.9139 24.518 17.3449 23.9811 17.3377C23.4417 17.3302 23.0106 16.887 23.0179 16.3477C23.0303 15.4404 23.0434 14.366 23.0459 13.276C23.0434 12.1905 23.0303 11.1161 23.0179 10.2088C23.0021 9.05081 22.9856 7.85337 22.7011 6.73814C22.414 5.61319 21.862 4.71139 21.0606 4.05775C20.1937 3.35069 19.1351 2.95454 17.9144 2.88034C16.1949 2.77582 14.4249 2.72756 12.5019 2.73157C10.5743 2.72699 8.80413 2.77582 7.08466 2.88034C5.86395 2.95454 4.80556 3.35069 3.93848 4.05756C3.13702 4.7112 2.58503 5.613 2.29797 6.73814C2.0134 7.85337 1.99699 9.05081 1.98116 10.2088C1.96877 11.1161 1.9558 12.1905 1.95312 13.2805C1.9558 14.366 1.96877 15.4404 1.98116 16.3477C1.99699 17.5057 2.0134 18.7031 2.29797 19.8184C2.58503 20.9433 3.13702 21.8451 3.93848 22.4988C4.80556 23.2058 5.86395 23.602 7.08466 23.6762C8.80413 23.7807 10.5747 23.8295 12.4973 23.8247C14.4251 23.8293 16.1949 23.7807 17.9144 23.6762C19.1351 23.602 20.1935 23.2058 21.0606 22.4988C21.6379 22.0278 22.089 21.4236 22.4012 20.7026C22.6156 20.2078 23.1905 19.9803 23.6855 20.1947C24.1804 20.4091 24.4078 20.9839 24.1936 21.4789C23.7558 22.4896 23.1171 23.342 22.2948 24.0124C21.121 24.9697 19.6474 25.5274 18.033 25.6257C16.3467 25.7283 14.6145 25.7783 12.746 25.7783ZM18.5541 13.2783C18.5541 9.91274 15.8161 7.17474 12.4506 7.17474C9.08527 7.17474 6.34708 9.91274 6.34708 13.2783C6.34708 16.6438 9.08527 19.3818 12.4506 19.3818C15.8161 19.3818 18.5541 16.6438 18.5541 13.2783ZM16.601 13.2783C16.601 15.5667 14.7392 17.4286 12.4506 17.4286C10.1622 17.4286 8.30021 15.5667 8.30021 13.2783C8.30021 10.9898 10.1622 9.12786 12.4506 9.12786C14.7392 9.12786 16.601 10.9898 16.601 13.2783ZM19.2377 5.22161C18.4288 5.22161 17.7729 5.87736 17.7729 6.68645C17.7729 7.49555 18.4288 8.1513 19.2377 8.1513C20.0468 8.1513 20.7026 7.49555 20.7026 6.68645C20.7026 5.87736 20.0468 5.22161 19.2377 5.22161Z" fill="#D1AD4F"/>
</g>
<defs>
<clipPath id="clip0_338_2036">
<rect width="25" height="25" fill="white" transform="translate(0 0.777832)"/>
</clipPath>
</defs>
</svg>
