<svg width="21" height="21" viewBox="0 0 21 21" fill="none" xmlns="http://www.w3.org/2000/svg">
<g clip-path="url(#clip0_338_1931)">
<path d="M0.5 10.2712C0.5 10.8985 1.00909 11.4076 1.63636 11.4076L16.6205 11.4076L11.7432 16.2848C11.3 16.728 11.3 17.4485 11.7432 17.8917C12.1864 18.3348 12.9068 18.3348 13.35 17.8917L20.1682 11.0735C20.2727 10.9689 20.3568 10.8439 20.4136 10.7053C20.4682 10.5667 20.5 10.4212 20.5 10.2757V10.2712C20.5 10.1235 20.4705 9.97575 20.4114 9.83711C20.3545 9.69847 20.2705 9.57347 20.1659 9.46893L13.3477 2.65075C12.9045 2.20756 12.1841 2.20756 11.7409 2.65075C11.2977 3.09393 11.2977 3.81438 11.7409 4.25756L16.6205 9.13484L1.63636 9.13484C1.00909 9.13484 0.5 9.64393 0.5 10.2712Z" fill="#FA9B2A"/>
</g>
<defs>
<clipPath id="clip0_338_1931">
<rect width="20" height="20" fill="white" transform="translate(0.5 0.5)"/>
</clipPath>
</defs>
</svg>
