<svg width="25" height="26" viewBox="0 0 25 26" fill="none" xmlns="http://www.w3.org/2000/svg">
<g clip-path="url(#clip0_338_2031)">
<path d="M24.2699 4.26157C23.9839 4.02045 23.6378 3.86203 23.2689 3.80332C22.9 3.7446 22.5221 3.7878 22.1758 3.92828L1.04062 12.4181C0.732525 12.5466 0.469257 12.7637 0.28405 13.0422C0.0988429 13.3207 0 13.648 0 13.9828C0 14.3176 0.0988429 14.6449 0.28405 14.9234C0.469257 15.2018 0.732525 15.419 1.04062 15.5474L2.40596 16.1122C2.63107 16.2078 2.88478 16.2098 3.11137 16.1178C3.33796 16.0258 3.5189 15.8473 3.61447 15.6215C3.66136 15.5091 3.68566 15.3884 3.68598 15.2666C3.6863 15.1447 3.66265 15.0239 3.61636 14.9112C3.57008 14.7986 3.50208 14.6962 3.41627 14.6099C3.33046 14.5237 3.22852 14.4553 3.11631 14.4087L2.10152 13.992L22.8677 5.65958C22.8996 5.63993 22.9363 5.62953 22.9737 5.62953C23.0112 5.62953 23.0479 5.63993 23.0798 5.65958C23.1099 5.68524 23.1327 5.71851 23.1456 5.75595C23.1586 5.7934 23.1614 5.83364 23.1536 5.87252L19.362 23.6299C19.3496 23.6931 19.3209 23.752 19.2789 23.8007C19.2368 23.8495 19.1828 23.8863 19.1222 23.9077C19.0627 23.9313 18.998 23.9387 18.9348 23.9289C18.8715 23.9191 18.812 23.8926 18.7624 23.8521L11.3822 18.0749L18.6056 10.7516C18.7599 10.591 18.8512 10.3798 18.8627 10.1569C18.8741 9.93408 18.805 9.71456 18.668 9.53879C18.5311 9.36301 18.3354 9.2428 18.1172 9.20027C17.8989 9.15774 17.6726 9.19577 17.4801 9.30734L6.88945 15.603C6.77182 15.6563 6.66666 15.7339 6.58076 15.8306C6.49486 15.9273 6.43014 16.041 6.39078 16.1643C6.35143 16.2877 6.3383 16.418 6.35227 16.5468C6.36623 16.6756 6.40697 16.8 6.47185 16.912C6.53673 17.024 6.62431 17.1211 6.72892 17.1969C6.83353 17.2728 6.95285 17.3259 7.07915 17.3526C7.20546 17.3793 7.33595 17.3791 7.46219 17.352C7.58842 17.325 7.70758 17.2716 7.81198 17.1954L12.2678 14.5568L10.0999 16.7695C9.90152 16.9565 9.74687 17.1853 9.64698 17.4393C9.54709 17.6933 9.50443 17.9664 9.52207 18.239C9.5397 18.5115 9.61719 18.7767 9.74898 19.0157C9.88077 19.2546 10.0636 19.4614 10.2844 19.6211L17.6646 25.3149C18.053 25.6158 18.53 25.7786 19.0207 25.7778C19.282 25.7759 19.541 25.729 19.7864 25.639C20.1388 25.512 20.4528 25.2963 20.6984 25.0126C20.9439 24.7289 21.1127 24.3867 21.1887 24.0188L24.9526 6.27988C25.0325 5.91296 25.0111 5.53113 24.8908 5.17548C24.7705 4.81984 24.5559 4.50386 24.2699 4.26157Z" fill="white"/>
</g>
<defs>
<clipPath id="clip0_338_2031">
<rect width="25" height="25" fill="white" transform="translate(0 0.777832)"/>
</clipPath>
</defs>
</svg>
