<svg width="25" height="26" viewBox="0 0 25 26" fill="none" xmlns="http://www.w3.org/2000/svg">
<g clip-path="url(#clip0_338_2034)">
<path d="M12.4998 25.6777H12.4948C10.5444 25.6769 8.61053 25.2165 6.87752 24.3429L1.53542 25.5581C1.20945 25.6321 0.868034 25.5343 0.63076 25.2987C0.393486 25.0631 0.29335 24.7225 0.365066 24.396L1.52264 19.1343C0.528145 17.2978 0.00305176 15.2863 0.000190735 13.2918C0 13.2849 0 13.278 0 13.2713C0.00133515 9.9661 1.30844 6.85331 3.68023 4.50651C6.04668 2.16505 9.17873 0.875488 12.4996 0.875488C15.8279 0.876823 18.955 2.16753 21.3058 4.50956C23.6893 6.88421 25.0011 9.99948 25 13.2813C24.999 15.7614 24.2554 18.1584 22.8495 20.2128C22.5449 20.6579 21.9372 20.7718 21.492 20.4672C21.047 20.1626 20.933 19.5549 21.2376 19.1097C22.4203 17.3813 23.0459 15.3656 23.0469 13.2805C23.0478 10.5219 21.94 7.89835 19.9274 5.89315C17.9451 3.91809 15.307 2.82976 12.4992 2.82861C6.6927 2.82861 1.96533 7.50352 1.95312 13.2538C1.95312 13.2601 1.95332 13.2662 1.95332 13.2723C1.95255 15.0522 2.45323 16.857 3.40099 18.4914C3.52364 18.7029 3.56255 18.9526 3.5099 19.1912L2.60334 23.312L6.79474 22.3585C7.0261 22.3061 7.26871 22.3395 7.47738 22.4526C9.00879 23.284 10.7439 23.7238 12.4952 23.7246H12.4996C14.4041 23.7246 16.2745 23.2096 17.9083 22.2355C18.3714 21.9591 18.9709 22.1108 19.2471 22.5741C19.5232 23.0374 19.3718 23.6366 18.9085 23.913C16.9723 25.0673 14.7562 25.6777 12.4996 25.6777H12.4998ZM9.74178 8.30804C9.52759 7.8335 9.30214 7.81728 9.09843 7.80908H8.55045C8.35972 7.80908 8.04996 7.88042 7.78809 8.16557C7.52602 8.45071 6.7873 9.14003 6.7873 10.5421C6.7873 11.9442 7.81193 13.2992 7.95479 13.4895C8.09784 13.6795 9.9329 16.6487 12.8389 17.791C15.2542 18.7403 15.7457 18.5515 16.2699 18.5038C16.7942 18.4565 17.9617 17.8147 18.1997 17.1492C18.4381 16.4839 18.4381 15.9136 18.3666 15.7944C18.2953 15.6758 18.1046 15.6044 17.8186 15.4619C17.5325 15.3195 16.1312 14.6181 15.8691 14.5231C15.6071 14.4282 15.4165 14.3807 15.2258 14.666C15.0351 14.951 14.4735 15.6099 14.3066 15.7999C14.1399 15.9905 13.973 16.0141 13.6871 15.8716C13.4012 15.7286 12.4897 15.4225 11.3974 14.4518C10.5473 13.6963 9.9575 12.7331 9.79061 12.4478C9.62372 12.1628 9.77268 12.0083 9.91611 11.8662C10.0445 11.7386 10.2182 11.5641 10.3613 11.3978C10.504 11.2314 10.5448 11.1126 10.64 10.9224C10.7353 10.7323 10.6876 10.566 10.6163 10.4233C10.5448 10.2808 9.99584 8.87148 9.74159 8.30804" fill="white"/>
</g>
<defs>
<clipPath id="clip0_338_2034">
<rect width="25" height="25" fill="white" transform="translate(0 0.777832)"/>
</clipPath>
</defs>
</svg>
